<svg xmlns="http://www.w3.org/2000/svg" viewBox="0 0 24 24" id="trending">
  <path fill="#574fe8" d="m19.262,7.251c-.471-.741-.864-1.03-1.33-.998-.576.053-.747.563-.86.901-.098.293-.242.72-.581,1.255-.029-1.001-.136-2.354-.818-3.74-.312-.635-1.441-2.689-2.82-2.404-.866.173-1.125,1.053-1.353,1.829-.062.212-.126.434-.206.65-.549,1.512-1.583,2.149-2.78,2.887-1.108.684-2.364,1.457-3.18,3.022-1.025,1.966-1.031,4.521-.013,6.668,1.188,2.508,3.791,4.245,6.63,4.427.164.011.325.016.484.016,4.572,0,7.101-4.198,7.209-4.383,0,0,0,0,0,0,2.298-3.911.753-8.336-.385-10.129Z" class="colorff9f69 svgShape"></path>
  <path fill="#645bff" d="m16.605,15.004c-.057-.278-.266-.5-.541-.573-.273-.07-.566.016-.755.227-.269.303-.466.344-.608.344l-.166-.021c-.417-.107-.578-.49-.593-1.415-.008-.496-.019-1.114-.202-1.768-.084-.3-.344-.517-.654-.545-.3-.026-.604.138-.741.417-.514,1.049-1.317,1.577-2.028,2.046-.662.434-1.288.844-1.683,1.649-.5,1.022-.495,2.418.011,3.556.61,1.372,1.961,2.324,3.439,2.425.086.006.17.009.254.009,2.402,0,3.788-2.458,3.802-2.483.759-1.377.672-2.863.465-3.867Z" class="colorffd15b svgShape"></path>
</svg>
