<svg xmlns="http://www.w3.org/2000/svg" viewBox="0 0 512 512" id="profile">
  <path d="M97.7,503.54c105.53,11.28,211.06,11.28,316.59,0,43.01-4.99,84.25-46.24,89.25-89.25,11.28-105.53,11.28-211.06,0-316.59-4.99-43.01-46.24-84.25-89.25-89.25-105.53-11.28-211.06-11.28-316.59,0C54.69,13.45,13.45,54.69,8.46,97.7c-11.28,105.53-11.28,211.06,0,316.59,4.99,43.01,46.24,84.25,89.25,89.25ZM256,75.03c44.77,0,81.06,36.29,81.06,81.06s-36.29,81.06-81.06,81.06-81.06-36.29-81.06-81.06,36.29-81.06,81.06-81.06ZM114.49,352.73c23.73-49.33,78.32-92.66,141.51-93.08t0,0c63.19.42,117.78,43.74,141.51,93.08,12.7,26.11-8.47,64.97-40.28,73-67.06,14.96-135.39,14.96-202.44,0-31.81-8.03-52.99-46.9-40.28-73Z" fill="#574fe8" class="color000000 svgShape"></path>
</svg>
