<svg xmlns="http://www.w3.org/2000/svg" xml:space="preserve" id="VideoGame" x="0" y="0" version="1.1" viewBox="0 0 512 512" enable-background="new 0 0 512 512">
  <g fill="#574fe8" class="color000000 svgShape">
    <path d="M353.4091187,39.2069244H66.17659c-4.3991737,0-7.9986725,3.5194359-7.9986725,7.9986725v155.3345337
		c0,4.4792328,3.5994987,7.9986725,7.9986725,7.9986725h287.2325439c4.3991699,0,7.9986877-3.5194397,7.9986877-7.9986725
		V47.2055969C361.4078064,42.7263603,357.8082886,39.2069244,353.4091187,39.2069244z M137.044693,194.5414581H74.1752548
		V55.2042694h82.6264114L137.044693,194.5414581z M217.8315582,167.8256836c0,4.3991699-3.5995026,7.9986725-7.9986725,7.9986725
		c-4.4792328,0-7.9986725-3.5995026-7.9986725-7.9986725v-19.3566437c0-4.3991699,3.5194397-7.9986725,7.9986725-7.9986725
		c4.3991699,0,7.9986725,3.5995026,7.9986725,7.9986725V167.8256836z M217.8315582,103.5165482
		c0,4.3991776-3.5995026,7.9986725-7.9986725,7.9986725c-4.4792328,0-7.9986725-3.5994949-7.9986725-7.9986725V87.9991074
		c0-4.3991699,3.5194397-7.9986649,7.9986725-7.9986649c4.3991699,0,7.9986725,3.5994949,7.9986725,7.9986649V103.5165482z
		 M345.4104614,194.5414581h-62.789856L262.9441833,55.2042694h82.4662781V194.5414581z" fill="#574fe8" class="color000000 svgShape"></path>
    <path d="M483.1644287,453.5296631L461.875,384.7286072c-5.9716797-19.2936707-23.5546875-32.2602539-43.7544556-32.2602539
		h-53.4779358c2.2999268-14.9755554,15.1615601-26.5151367,30.8449707-26.5151367
		c26.0464478,0,47.2382507-21.191803,47.2382507-47.242157v-56.4710693c0-26.046463-21.191803-47.2382507-47.2382507-47.2382507
		h-2.9370117V32.03722c0-13.2321777-10.7638245-23.9960136-23.9960022-23.9960136H51.0604477
		c-13.2321777,0-23.9960136,10.763835-23.9960136,23.9960136v208.4965973c0,13.2321777,10.7638359,23.9960327,23.9960136,23.9960327
		h106.1835251c2.3633728,14.3403625,0.4227753,25.2765503-7.0666962,41.7860107h-28.6754074
		c-4.4172363,0-7.9986725,3.5814514-7.9986725,7.9986572v35.0606079c0,4.4172058,3.5814362,7.9986572,7.9986725,7.9986572
		h128.5450439c4.4172363,0,7.9986877-3.5814514,7.9986877-7.9986572c0-4.4172363-3.5814514-7.9986877-7.9986877-7.9986877
		H129.5005341v-19.0632324h168.6165009c4.4172363,0,7.9986877-3.5814514,7.9986877-7.9986877
		c0-4.4172058-3.5814514-7.9986572-7.9986877-7.9986572h-28.674408
		c-7.4929199-16.5084839-9.4344788-27.4446716-7.0686646-41.7860107h106.180603
		c13.2321777,0,23.9960022-10.763855,23.9960022-23.9960327v-49.534729h2.9370117
		c17.2276001,0,31.2409058,14.0132904,31.2409058,31.2409058v56.4710693c0,17.2276306-14.0133057,31.244812-31.3229065,31.244812
		c-24.4515076,0-44.6195374,18.6765747-46.9985352,42.5124817h-54.1955872
		c-20.2036743,0-37.7867126,12.9665833-43.7544556,32.2641602l-21.2894287,68.7971497
		c-3.6907959,11.9355164-1.5544281,24.5506287,5.8583984,34.6075439
		c7.4167328,10.053009,18.8367157,15.8215942,31.330719,15.8215942c13.556366,0,25.917572-6.8738708,33.0648193-18.383667
		l15.5286865-24.9919434h82.4316101l15.5247498,24.9919434c7.1511536,11.5097961,19.5162964,18.383667,33.0687256,18.383667
		c12.4940186,0,23.9140015-5.7685852,31.3307495-15.8215942
		C484.7188416,478.0802917,486.8552246,465.4651794,483.1644287,453.5296631z M167.5699005,306.3158569
		c5.4424438-13.5783081,7.8678284-26.0947876,5.8012695-41.7860107h72.8751068
		c-2.0680237,15.6902466,0.355896,28.2067261,5.7998199,41.7860107H167.5699005z M376.5532227,240.5338135
		c0,4.4094238-3.5892334,7.9986725-7.9986572,7.9986725H51.0604477c-4.4094238,0-7.9986725-3.5892487-7.9986725-7.9986725V32.03722
		c0-4.4094238,3.5892487-7.9986725,7.9986725-7.9986725h317.4941101c4.4094238,0,7.9986572,3.5892487,7.9986572,7.9986725
		V240.5338135z M326.8935242,411.1304626h-4.7921753v4.7921753c0,4.4172363-3.5814514,7.9986877-7.9986877,7.9986877
		s-7.9986572-3.5814514-7.9986572-7.9986877v-4.7921753h-4.7921753c-4.4172363,0-7.9986572-3.5814209-7.9986572-7.9986572
		s3.5814209-7.9986877,7.9986572-7.9986877h4.7921753v-4.7921753c0-4.4172363,3.5814209-7.9986572,7.9986572-7.9986572
		s7.9986877,3.5814209,7.9986877,7.9986572v4.7921753h4.7921753c4.4172363,0,7.9986572,3.5814514,7.9986572,7.9986877
		S331.3107605,411.1304626,326.8935242,411.1304626z M365.4925537,413.223877h-1.1521301
		c-4.4172363,0-7.9986877-3.5814514-7.9986877-7.9986877s3.5814514-7.9986572,7.9986877-7.9986572h1.1521301
		c4.4172363,0,7.9986877,3.5814209,7.9986877,7.9986572S369.90979,413.223877,365.4925537,413.223877z M390.2423706,423.128479
		c0,4.4172363-3.5814514,7.9986572-7.9986877,7.9986572s-7.9986572-3.5814209-7.9986572-7.9986572v-1.1560669
		c0-4.4172363,3.5814209-7.9986572,7.9986572-7.9986572s7.9986877,3.5814209,7.9986877,7.9986572V423.128479z
		 M390.2423706,388.4779968c0,4.4172363-3.5814514,7.9986572-7.9986877,7.9986572s-7.9986572-3.5814209-7.9986572-7.9986572
		v-1.1560669c0-4.4172363,3.5814209-7.9986877,7.9986572-7.9986877s7.9986877,3.5814514,7.9986877,7.9986877V388.4779968z
		 M400.1469727,413.223877h-1.1560669c-4.4172363,0-7.9986572-3.5814514-7.9986572-7.9986877
		s3.5814209-7.9986572,7.9986572-7.9986572h1.1560669c4.4172363,0,7.9986572,3.5814209,7.9986572,7.9986572
		S404.564209,413.223877,400.1469727,413.223877z" fill="#574fe8" class="color000000 svgShape"></path>
  </g>
</svg>
