<svg id="SvgjsSvg1001" width="288" height="288" xmlns="http://www.w3.org/2000/svg" version="1.1" xmlns:xlink="http://www.w3.org/1999/xlink" xmlns:svgjs="http://svgjs.com/svgjs"><defs id="SvgjsDefs1002"></defs><g id="SvgjsG1008"><svg xmlns="http://www.w3.org/2000/svg" xmlns:xlink="http://www.w3.org/1999/xlink" viewBox="0 0 64 64" width="288" height="288"><defs><path id="a" d="M.06 64V.04H64V64z" class="selectable"></path></defs><g fill-rule="evenodd"><path fill="#fefeff" d="M12 32.993v.463l.002-.094c-.002-.12-.002-.243-.002-.369" class="svgShape colorfffffe-3 selectable"></path><mask id="b" fill="#ffffff" class="svgShape colorffffff-4"><use xlink:href="#a" class="selectable"></use></mask><path fill="#fefeff" d="M50.25 29.714L44 26.73V26a2 2 0 0 0-2-2c-.723 0-1.35.387-1.702.962l-4.523-2.159.225-6.04c0-.763-.542-2.35-1.286-3.796a14.52 14.52 0 0 0-.307-.565l-.009-.017a13.444 13.444 0 0 0-.304-.504l-.032-.05a8.845 8.845 0 0 0-.291-.427l-.055-.079a8.04 8.04 0 0 0-.273-.346c-.027-.032-.053-.067-.08-.098a4.946 4.946 0 0 0-.252-.264c-.033-.034-.067-.071-.1-.102a2.834 2.834 0 0 0-.237-.191c-.037-.028-.074-.062-.11-.086-.08-.053-.158-.088-.236-.124-.034-.016-.069-.04-.103-.052A.953.953 0 0 0 32 10a.953.953 0 0 0-.325.062c-.034.012-.069.036-.103.052-.078.036-.156.071-.236.124-.036.024-.073.058-.11.086a2.834 2.834 0 0 0-.237.191c-.033.031-.067.068-.1.102a4.946 4.946 0 0 0-.252.264c-.027.031-.053.066-.08.098a8.04 8.04 0 0 0-.273.346l-.055.079a9.643 9.643 0 0 0-.292.427l-.031.05c-.103.163-.205.331-.304.504l-.009.017a14.52 14.52 0 0 0-.307.565C28.542 14.413 28 16 28 16.763l.225 6.04-4.523 2.159A1.992 1.992 0 0 0 22 24a2 2 0 0 0-2 2v.73l-6.25 2.984c-1.574.96-1.734 2.1-1.748 3.648.002.162.008.315.016.464-.006.058-.018.114-.018.174v2a2 2 0 1 0 4 0v-.89l12.551-3.542.385 10.34-7.928 4.939c-1.152.916-1.008 2.29-1.008 3.91 0 0 .193 1.826 2 1.123l8-3.104V49a2 2 0 0 0 4 0v-.224l8 3.104c1.807.703 2-1.123 2-1.123 0-1.62.144-2.994-1.008-3.91l-7.928-4.939.385-10.34L48 35.11V36a2 2 0 1 0 4 0v-1.807V34c0-.06-.012-.116-.018-.174.008-.149.014-.302.016-.464l.002.094v-.463c0 .126 0 .249-.002.369-.014-1.548-.174-2.688-1.748-3.648" mask="url(#b)" class="svgShape colorfffffe-6 selectable"></path><path fill="#574fe8" d="M52 33.456V36a2 2 0 1 1-4 0v-.89l-12.551-3.542-.385 10.34 7.928 4.939c1.152.916 1.008 2.29 1.008 3.91 0 0-.193 1.826-2 1.123l-8-3.104V49a2 2 0 0 1-4 0v-.224l-8 3.104c-1.807.703-2-1.123-2-1.123 0-1.62-.144-2.994 1.008-3.91l7.928-4.939-.385-10.34L16 35.11V36a2 2 0 1 1-4 0v-1.807V34 32.993c0 .126 0 .249.002.369.014-1.548.174-2.688 1.748-3.648L20 26.73V26a2 2 0 0 1 2-2c.723 0 1.351.387 1.702.962l4.523-2.159-.225-6.04c0-.763.542-2.35 1.286-3.796.099-.192.201-.38.307-.565l.009-.017c.099-.173.201-.341.304-.504l.031-.05c.096-.149.193-.29.292-.427l.055-.079a8.04 8.04 0 0 1 .273-.346c.027-.032.053-.067.08-.098.084-.096.168-.181.252-.264.033-.034.067-.071.1-.102.079-.073.158-.132.237-.191.037-.028.074-.062.11-.086.08-.053.158-.088.236-.124.034-.016.069-.04.103-.052A.953.953 0 0 1 32 10c.106 0 .215.022.325.062.034.012.069.036.103.052.078.036.156.071.236.124.036.024.073.058.11.086.079.059.158.118.237.191.033.031.067.068.1.102.084.083.168.168.252.264.027.031.053.066.08.098.091.11.182.223.273.346l.055.079c.099.137.196.278.291.427l.032.05c.103.163.205.331.304.504l.009.017c.106.185.208.373.307.565C35.458 14.413 36 16 36 16.763l-.225 6.04 4.523 2.159A1.993 1.993 0 0 1 42 24a2 2 0 0 1 2 2v.73l6.25 2.984c1.574.96 1.734 2.1 1.748 3.648.002-.12.002-.243.002-.369v.463zM32 0C14.327 0 0 14.327 0 32c0 17.673 14.327 32 32 32 17.673 0 32-14.327 32-32C64 14.327 49.673 0 32 0z" mask="url(#b)" class="svgShape color4c5665-7 selectable"></path><path fill="#574fe8" d="M51.982 33.826c.006.058.018.114.018.174v-.544l-.002-.094c-.002.162-.008.315-.016.464M12.002 33.362l-.002.094V34c0-.06.012-.116.018-.174a11.146 11.146 0 01-.016-.464" class="svgShape color4c5665-8 selectable"></path></g></svg></g></svg>