<svg id="SvgjsSvg1001" width="288" height="288" xmlns="http://www.w3.org/2000/svg" version="1.1" xmlns:xlink="http://www.w3.org/1999/xlink" xmlns:svgjs="http://svgjs.com/svgjs"><defs id="SvgjsDefs1002"></defs><g id="SvgjsG1008"><svg xmlns="http://www.w3.org/2000/svg" fill-rule="evenodd" stroke-linejoin="round" stroke-miterlimit="2" clip-rule="evenodd" viewBox="0 0 1069 1069" width="288" height="288"><rect width="1066.67" height="1066.67" x=".982" y="1.365" fill="none" class="selectable"></rect><path fill-opacity=".5" d="M363.181 255.374c-74.739 0-135.417 60.678-135.417 135.417 0 74.738 60.678 135.417 135.417 135.417 74.738 0 135.416-60.679 135.416-135.417 0-74.739-60.678-135.417-135.416-135.417zm0 62.5c40.244 0 72.916 32.673 72.916 72.917 0 40.244-32.672 72.917-72.916 72.917-40.244 0-72.917-32.673-72.917-72.917 0-40.244 32.673-72.917 72.917-72.917zM699.767 878.777l157.503 85.032c11.15 6.019 24.831 4.71 34.637-3.314 9.805-8.025 13.795-21.176 10.101-33.297l-30.862-101.246c71.38-51.273 117.891-135.006 117.891-229.511 0-155.872-126.548-282.419-282.419-282.419-37.495 0-73.292 7.33-106.029 20.616-12.653 5.135-20.506 17.891-19.394 31.501.487 5.97.736 12.014.736 18.116 0 92.194-56.856 171.21-137.392 203.889-12.653 5.135-20.507 17.889-19.397 31.499 11.653 142.786 129.679 255.67 274.625 259.134zm22.888-58.67l-16.037-3.747c-107.903 0-197.77-77.871-216.382-180.445 91.158-46.578 153.73-141.239 154.184-250.457 19.718-5.82 40.597-8.936 62.198-8.936 121.377 0 219.919 98.542 219.919 219.919 0 80.534-43.393 151.007-108.049 189.339-12.392 7.347-18.156 22.213-13.955 35.993l15.52 50.917c.001 0-97.398-52.583-97.398-52.583z" fill="#574fe8" class="svgShape color000000-1 selectable"></path><path d="M197.484,613.766l-30.862,101.246c-3.694,12.121 0.295,25.272 10.101,33.297c9.806,8.024 23.487,9.333 34.637,3.314l157.511,-85.036c152.705,-3.64 275.56,-128.752 275.56,-282.332c-0,-155.872 -126.548,-282.419 -282.419,-282.419c-155.872,-0 -282.419,126.547 -282.419,282.419c-0,94.505 46.51,178.238 117.891,229.511Zm466.592,48.318l85.084,-0l22.717,48.105c7.365,15.596 26.006,22.279 41.602,14.914c15.596,-7.364 22.278,-26.006 14.914,-41.601l-30.963,-65.568c-0.127,-0.28 -0.258,-0.557 -0.393,-0.832l-62.161,-131.636c-5.163,-10.932 -16.168,-17.906 -28.258,-17.906c-12.09,0 -23.095,6.974 -28.258,17.906l-93.516,198.036c-7.365,15.595 -0.682,34.237 14.914,41.601c15.595,7.365 34.236,0.682 41.601,-14.914l22.717,-48.105Zm-302.064,-57.91c17.259,-0 8.926,0.081 -1.059,-0.004c-10.01,0.12 -12.117,2.104 -14.978,3.751l-97.399,52.583c0.001,0 15.521,-50.917 15.521,-50.917c4.201,-13.78 -1.563,-28.646 -13.955,-35.993c-64.656,-38.332 -108.049,-108.805 -108.049,-189.339c-0,-121.377 98.542,-219.919 219.919,-219.919c121.376,-0 219.919,98.542 219.919,219.919c-0,121.376 -98.543,219.919 -219.919,219.919Zm331.578,-4.59l26.056,-0l-13.028,-27.59l-13.028,27.59Zm-314.248,-148.882l66.353,66.353c12.196,12.195 31.998,12.195 44.194,-0c12.196,-12.196 12.196,-31.999 0,-44.194l-66.353,-66.353c-12.195,-12.196 -31.998,-12.196 -44.194,-0c-12.195,12.196 -12.195,31.998 0,44.194Z" fill="#574fe8" class="svgShape color000000-2 selectable"></path></svg></g></svg>