<svg xmlns="http://www.w3.org/2000/svg" viewBox="0 0 24 24" id="Book">
  <path d="M12 24c-.2 0-.4-.1-.5-.2-.1 0-3-1.8-10.5-1.8-.6 0-1-.4-1-1V1c0-.6.4-1 1-1 6.4 0 9.8 1.3 11 1.9C13.2 1.3 16.6 0 23 0c.6 0 1 .4 1 1v20c0 .6-.4 1-1 1-7.5 0-10.4 1.8-10.5 1.8-.1.1-.3.2-.5.2zM2 20c5.8.1 8.8 1.3 10 1.9 1.2-.6 4.2-1.7 10-1.9V2c-6.8.2-9.4 1.8-9.5 1.8-.3.2-.8.2-1.1 0 0 0-2.7-1.7-9.4-1.8v18z" fill="#574fe8" class="color000000 svgShape"></path>
  <path d="M12 24c-.6 0-1-.4-1-1V3c0-.6.4-1 1-1s1 .4 1 1v20c0 .6-.4 1-1 1zM1 22c-.6 0-1-.4-1-1V5c0-.6.4-1 1-1s1 .4 1 1v16c0 .6-.4 1-1 1z" fill="#574fe8" class="color000000 svgShape"></path>
  <path d="M12 24c-.6 0-1-.4-1-1V7c0-.6.4-1 1-1s1 .4 1 1v16c0 .6-.4 1-1 1zM1 22c-.6 0-1-.4-1-1V8c0-.6.4-1 1-1s1 .4 1 1v13c0 .6-.4 1-1 1z" fill="#574fe8" class="color000000 svgShape"></path>
  <path d="M12 24c-.6 0-1-.4-1-1V10c0-.6.4-1 1-1s1 .4 1 1v13c0 .6-.4 1-1 1zM1 22c-.6 0-1-.4-1-1V11c0-.6.4-1 1-1s1 .4 1 1v10c0 .6-.4 1-1 1z" fill="#574fe8" class="color000000 svgShape"></path>
  <path d="M12 24c-.6 0-1-.4-1-1V13c0-.6.4-1 1-1s1 .4 1 1v10c0 .6-.4 1-1 1zM1 22c-.6 0-1-.4-1-1v-7c0-.6.4-1 1-1s1 .4 1 1v7c0 .6-.4 1-1 1z" fill="#574fe8" class="color000000 svgShape"></path>
  <path d="M12 24c-.6 0-1-.4-1-1v-7c0-.6.4-1 1-1s1 .4 1 1v7c0 .6-.4 1-1 1zM1 22c-.6 0-1-.4-1-1v-4c0-.6.4-1 1-1s1 .4 1 1v4c0 .6-.4 1-1 1z" fill="#574fe8" class="color000000 svgShape"></path>
  <path d="M12 24c-.6 0-1-.4-1-1v-4c0-.6.4-1 1-1s1 .4 1 1v4c0 .6-.4 1-1 1z" fill="#574fe8" class="color000000 svgShape"></path>
</svg>
