<svg xmlns="http://www.w3.org/2000/svg" viewBox="0 0 24 24" id="Chat">
  <g fill="#574fe8" class="color000000 svgShape">
    <path d="M20 0H4a4 4 0 0 0-4 4v12a4.008 4.008 0 0 0 3 3.874v.712a2.414 2.414 0 0 0 4.121 1.707L9.414 20H20a4 4 0 0 0 4-4V4a4 4 0 0 0-4-4Zm2 16a2 2 0 0 1-2 2H9a1 1 0 0 0-.707.293l-2.587 2.586A.43.43 0 0 1 5 20.586V19a1 1 0 0 0-1-1 2 2 0 0 1-2-2V4a2 2 0 0 1 2-2h16a2 2 0 0 1 2 2Z" stroke="#574fe8" stroke-width="1.5" fill="#574fe8" class="color000000 svgShape"></path>
    <path d="M7 7a1.5 1.5 0 0 0-1.5 1.5v2a1.5 1.5 0 0 0 3 0v-2A1.5 1.5 0 0 0 7 7zm5 0a1.5 1.5 0 0 0-1.5 1.5v2a1.5 1.5 0 0 0 3 0v-2A1.5 1.5 0 0 0 12 7zm5 0a1.5 1.5 0 0 0-1.5 1.5v2a1.5 1.5 0 0 0 3 0v-2A1.5 1.5 0 0 0 17 7z" fill="#574fe8" class="color000000 svgShape"></path>
  </g>
</svg>