<svg xmlns="http://www.w3.org/2000/svg" viewBox="0 0 32 32" id="basketball">
  <g fill="#574fe8" class="color000000 svgShape">
    <path d="M30,16A14,14,0,0,0,24.4,4.83a.46.46,0,0,0-.07-.07l0,0a14,14,0,0,0-7-2.68h0C16.82,2,16.42,2,16,2A13.92,13.92,0,0,0,7.7,4.75s0,0-.08.06A14,14,0,0,0,2,16c0,.16,0,.32,0,.49s0,.06,0,.09,0,0,0,0A14,14,0,0,0,7.61,27.18l.1.07A13.87,13.87,0,0,0,16,30c.36,0,.71,0,1.06-.05h.06a13.81,13.81,0,0,0,7.16-2.68l0,0a.46.46,0,0,0,.07-.07A14,14,0,0,0,30,16Zm-6,8.91v0a15.21,15.21,0,0,0-5.45-5.06A15.07,15.07,0,0,0,11.65,18c0-.33-.08-.67-.1-1a55,55,0,0,1,16,2.26A12.09,12.09,0,0,1,24,24.91Zm-6.62,3A15,15,0,0,1,12.06,20,13,13,0,0,1,22.32,26l.1.14A11.82,11.82,0,0,1,17.39,27.91ZM9,25.75l-.56-1.91a3,3,0,0,1,1.6-3.53,17,17,0,0,0,4.28,7.56A11.93,11.93,0,0,1,9,25.75ZM8.47,8.15,9,6.25a11.93,11.93,0,0,1,5.32-2.12,16.93,16.93,0,0,0-4.28,7.57,3.06,3.06,0,0,1-1.25-1.09A2.93,2.93,0,0,1,8.47,8.15Zm14-2.27-.1.15a13.09,13.09,0,0,1-4.73,4.38A13,13,0,0,1,12.06,12a15,15,0,0,1,5.33-7.87A11.82,11.82,0,0,1,22.42,5.88ZM28,16c0,.44,0,.87-.07,1.29A57.84,57.84,0,0,0,11.55,15c0-.34.06-.68.1-1a15.07,15.07,0,0,0,6.9-1.82A15.21,15.21,0,0,0,24,7.11v0A12,12,0,0,1,28,16ZM6.35,8.89a5,5,0,0,0,.78,2.8,5,5,0,0,0,2.54,2c-.06.44-.1.87-.12,1.31q-2.84.06-5.52.33A11.93,11.93,0,0,1,6.35,8.89ZM4.08,17.35c1.77-.18,3.6-.29,5.47-.33,0,.43.07.85.12,1.27a5,5,0,0,0-2.54,2,5,5,0,0,0-.78,2.79A11.84,11.84,0,0,1,4.08,17.35Z" fill="#574fe8" class="color000000 svgShape"></path>
  </g>
</svg>
