<svg xmlns="http://www.w3.org/2000/svg" id="Devices" viewBox="0 0 1000 1000">
  <path d="M646.87,705.92h-546a16,16,0,0,1-16-16V170.79a16,16,0,0,1,16-16H844a16,16,0,0,1,16,16V310.4a16,16,0,0,1-32,0V186.79H116.91V673.92h530a16,16,0,0,1,0,32Z" fill="#574fe8" class="color56060d svgShape"></path>
  <path d="M843.11 257.76H100a16 16 0 0 1 0-32H843.11a16 16 0 0 1 0 32ZM646.87 635h-546a16 16 0 1 1 0-32h546a16 16 0 1 1 0 32ZM397 794.53a16 16 0 0 1-14.4-23l42.81-88.74a16 16 0 0 1 28.82 13.9l-42.81 88.74A16 16 0 0 1 397 794.53ZM547.18 795.19a16 16 0 0 1-14.42-9.05l-43.13-89.41a16 16 0 1 1 28.82-13.9l43.13 89.41a16 16 0 0 1-14.4 23Z" fill="#574fe8" class="color56060d svgShape"></path>
  <path d="M297.37,845.21a16,16,0,0,1-11.95-26.63c22.61-25.43,61-45.2,108.12-55.68a365.41,365.41,0,0,1,157.27.71c45.64,10.61,83,30.13,105.05,55A16,16,0,0,1,632,839.85c-17.48-19.65-49.7-36.08-88.4-45.07a333.28,333.28,0,0,0-143.06-.64c-40,8.9-73.24,25.55-91.16,45.71A16,16,0,0,1,297.37,845.21Z" fill="#574fe8" class="color56060d svgShape"></path>
  <path d="M876.53,749.87H670.34a39.51,39.51,0,0,1-39.47-39.47V333.88a39.51,39.51,0,0,1,39.47-39.47H876.53A39.51,39.51,0,0,1,916,333.88V710.4A39.51,39.51,0,0,1,876.53,749.87ZM670.34,326.41a7.48,7.48,0,0,0-7.47,7.47V710.4a7.48,7.48,0,0,0,7.47,7.47H876.53A7.48,7.48,0,0,0,884,710.4V333.88a7.48,7.48,0,0,0-7.47-7.47Z" fill="#2318ec" class="colorec2e18 svgShape"></path>
  <path d="M900 401.71H646.87a16 16 0 0 1 0-32H900a16 16 0 0 1 0 32ZM794.4 364.06H752.48a16 16 0 0 1 0-32H794.4a16 16 0 0 1 0 32ZM790.4 711.4H756.47a16 16 0 0 1 0-32H790.4a16 16 0 0 1 0 32ZM900 672.92H646.87a16 16 0 0 1 0-32H900a16 16 0 0 1 0 32Z" fill="#2318ec" class="colorec2e18 svgShape"></path>
</svg>
