<svg xmlns="http://www.w3.org/2000/svg" enable-background="new 0 0 512 512" viewBox="0 0 512 512" id="Chef">
  <path d="M169.034,302.526c-31.312,11.99-90.984,49.128-81.506,156.65c0.715,8.048,7.441,14.21,15.519,14.21h305.905
	c8.078,0,14.804-6.162,15.519-14.21c9.371-106.092-48.885-143.656-80.683-156.193c12.81-25.727,8.489-100.933,8.489-100.933
	c9.569-4.792,18.456-12.081,26.32-21.894c7.592-9.387,17.695-33.807,7.441-66.153c-6.056-18.013-28.604-48.138-72.407-44.761
	c-13.327-23.72-41.718-30.627-58.728-30.627c-30.642,0.471-48.064,16.264-56.4,30.535c-44.29-3.544-66.488,26.839-72.62,45.111
	c-10.163,32.088-0.061,56.508,7.47,65.834c7.897,9.859,16.828,17.163,26.444,21.971
	C159.798,202.064,155.096,268.886,169.034,302.526z M298.114,318.744c-17.512,16.479-39.406,14.865-41.079,14.804
	c-19.855-0.79-34.825-7.15-45.766-19.444c-14.986-16.843-19.034-41.095-20.022-56.4h129.719
	C319.369,285.394,311.746,305.935,298.114,318.744z M272.752,363.704v12.308h-33.503v-13.374
	C239.249,362.639,256.153,367.462,272.752,363.704z M327.661,332.484l-0.137,109.742H184.841V330.901c0,0,6.74,9.6,23.248,20.053
	v40.638c0,8.612,6.969,15.58,15.58,15.58h64.662c8.611,0,15.58-6.967,15.58-15.58v-38.736
	C303.911,352.856,316.797,346.405,327.661,332.484z M307.152,101.527c36.728-7.653,47.546,17.42,49.265,22.151
	c7.47,23.553-1.856,36.606-2.085,36.941c-5.294,6.604-21.361,26.747-51.455,11.199c-7.653-3.94-17.055-0.958-20.997,6.695
	c-3.94,7.653-0.943,17.04,6.695,20.995c11.046,5.691,21.986,8.627,32.574,9.099l0.076,17.939H191.064l-0.076-17.954
	c10.378-0.486,21.089-3.317,31.906-8.824c7.668-3.895,10.711-13.282,6.801-20.95c-3.895-7.668-13.282-10.742-20.95-6.801
	c-29.806,15.168-45.797-4.839-50.908-11.183c-0.396-0.548-9.706-13.601-2.388-36.759c1.856-5.112,12.917-30.323,49.417-22.547
	c8.413,1.718,16.599-3.53,18.454-11.869c0.047-0.198,4.626-19.475,31.753-19.884c1.172,0.016,28.742,0.547,33.732,20.327
	C288.803,90.1,292.364,104.599,307.152,101.527z M153.682,346.71v95.516h-35.921C116.498,390.848,134.893,362.396,153.682,346.71z
	 M358.683,442.226l0.122-94.97c18.654,15.854,36.667,44.306,35.435,94.97H358.683z" fill="#574fe8" class="color000000 svgShape"></path>
</svg>
