<svg xmlns="http://www.w3.org/2000/svg" viewBox="0 0 170 170" id="PaintPalette">
  <g fill="#574fe8" class="color000000 svgShape">
    <g id="Merged" fill="#574fe8" class="color000000 svgShape">
      <g fill="#574fe8" class="color000000 svgShape">
        <path d="M92.002,8.911C60.227-2.114,19.521,9.994,9.178,43.561c-12.119,37.797,5.948,83.322,41.984,105.68,11.286,6.237,26.978,15.036,42.529,15.759,11.966.178,20.209-11.938,15.408-22.968l-.09-.24c-.004-.012-.009-.022-.013-.034-2.7-7.235-8.752-12.517-12.512-18.808-3-4.726-4.062-11.447-.297-15.147,4.823-4.373,13.176-.536,16.718,4.168,6.044,7.418,8.182,18.494,14.371,26.273,11.953,15.118,25.659,1.967,31.294-10.737,22.351-47.417-19.72-106.077-66.569-118.596ZM149.445,123.419c-2.771,6.132-7.266,11.188-10.232,11.509-1.178.115-2.506-.766-3.975-2.734-5.861-7.821-7.939-18.762-14.603-26.568-4.207-5.412-11.224-9.205-17.907-9.675-18.776-.747-23.305,19.31-14.736,32.28,3.332,5.848,9.302,11.155,11.655,17.076,1.098,2.342,1.149,4.987-.293,6.954-6.183,9.118-36.189-7.735-43.224-11.699-14.942-9.374-27.086-23.879-34.205-40.858-13.346-31.06-6.923-71.238,25.093-81.333C101.405-.431,174.448,63.996,149.445,123.419Z" fill="#574fe8" class="color000000 svgShape"></path>
        <path d="M67.584 24.618c-14.662 12.061-1.391 39.001 17.454 38.901 16.431-.101 21.545-19.766 11.035-32.766-6.726-8.872-19.595-13.121-28.489-6.135ZM84.003 53.456c-3.308-.392-6.77-2.53-9.26-5.721-5.228-6.591-4.733-16.419 3.136-16.612 3.87.076 7.511 2.28 10.312 5.784 5.604 6.939 4.378 17.52-4.188 16.549ZM61.319 85.799c14.006-11.44 2.52-36.921-15.245-38.77-4.66-.548-9.104.644-12.518 3.361-14.664 12.062-1.389 39.004 17.454 38.902 3.841 0 7.439-1.208 10.309-3.493ZM49.976 79.229c-3.309-.391-6.771-2.529-9.262-5.721-5.228-6.59-4.733-16.42 3.136-16.612 3.87.075 7.511 2.28 10.311 5.784 5.605 6.939 4.38 17.516-4.185 16.549ZM46.317 95.495c-13.45 11.056-1.415 35.664 15.866 35.578 15.065-.077 19.881-18.124 10.247-30.031-6.157-8.127-17.98-11.961-26.113-5.547ZM65.466 120.024c-4.019 2.743-9.122-.274-12.003-3.88-4.349-5.514-4.175-13.681 2.354-13.877 3.268.07 6.346 1.947 8.729 4.93 3.538 4.531 3.959 10.405.919 12.827ZM110.121 52.538c-13.453 11.056-1.412 35.666 15.866 35.579 3.54 0 6.86-1.116 9.511-3.228 12.842-10.48 2.448-33.752-13.836-35.457-4.29-.511-8.39.596-11.542 3.105ZM128.352 64.241c3.539 4.531 3.959 10.405.919 12.826-4.021 2.742-9.121-.273-12.003-3.88-4.35-5.514-4.175-13.68 2.354-13.877 3.269.07 6.346 1.947 8.73 4.931Z" fill="#574fe8" class="color000000 svgShape"></path>
      </g>
    </g>
  </g>
</svg>
