<?xml version="1.0" encoding="UTF-8"?>
<svg version="1.1" xmlns="http://www.w3.org/2000/svg" width="475" height="475">
<path d="M0 0 C8.33223974 7.56100302 15.77173991 15.65836008 22.69335938 24.53662109 C23.50546875 25.55498047 24.31757813 26.57333984 25.15429688 27.62255859 C63.39663711 75.94576273 80.8645008 138.4606363 74.36181641 199.65673828 C68.07095533 253.46163165 45.10007877 301.56674433 7.69335938 340.53662109 C7.20754395 341.04966797 6.72172852 341.56271484 6.22119141 342.09130859 C-0.83961248 349.52721031 -8.31994361 356.04567478 -16.52539062 362.19091797 C-18.25340139 363.49639978 -19.95291383 364.83241412 -21.65039062 366.17724609 C-38.31262501 379.15183924 -57.52479477 389.23734961 -77.30664062 396.53662109 C-78.53447266 396.99391602 -78.53447266 396.99391602 -79.78710938 397.46044922 C-138.65790399 419.05241754 -205.21030737 416.42360755 -262.18652344 390.18139648 C-294.95454274 374.53388804 -324.86585038 352.27518195 -347.30664062 323.53662109 C-348.08394531 322.57626953 -348.86125 321.61591797 -349.66210938 320.62646484 C-360.71265192 306.72983662 -369.85818999 291.63961723 -377.30664062 275.53662109 C-377.60376953 274.90755859 -377.90089844 274.27849609 -378.20703125 273.63037109 C-386.77498961 255.41179297 -392.55505995 236.29494597 -396.30664062 216.53662109 C-396.47180176 215.68567871 -396.63696289 214.83473633 -396.80712891 213.95800781 C-407.64728331 155.40772194 -393.4848653 90.93557016 -360.05712891 41.82592773 C-353.47652224 32.36871461 -346.45420239 23.45559612 -338.59570312 15.01318359 C-336.66080846 12.91979927 -334.82087157 10.78579902 -332.99414062 8.59912109 C-295.11568589 -34.64032144 -235.20566303 -59.01115992 -178.84179688 -63.15087891 C-112.04316449 -67.29708215 -49.66025311 -44.17517995 0 0 Z " fill="#574fe8" transform="translate(399.306640625,63.46337890625)"/>
<path d="M0 0 C1.5778125 0.52787109 1.5778125 0.52787109 3.1875 1.06640625 C15.63762318 5.51497621 25.54425369 11.8078285 35 21 C35.63679688 21.57492188 36.27359375 22.14984375 36.9296875 22.7421875 C49.70156958 34.60584685 58.18854379 53.98884486 59.1262207 71.33496094 C59.44811859 81.88503637 59.56756794 91.93945842 56 102 C55.63648438 103.06347656 55.27296875 104.12695312 54.8984375 105.22265625 C50.86125742 116.35745938 46.20492821 125.40236249 37.66015625 133.7109375 C35.73318418 135.86988268 35.73318418 135.86988268 36.10546875 138.5234375 C36.97706694 140.93650848 37.9834041 143.02143253 39.25 145.25 C50.90531047 167.95251778 52.47664023 196.91190573 44.74609375 221.09375 C35.27309738 248.63887098 16.528474 271.39664504 -8 287 C-8.5789502 287.3805957 -9.15790039 287.76119141 -9.75439453 288.15332031 C-19.93677684 294.82617299 -30.6475738 299.65874157 -42 304 C-42.70398926 304.27440918 -43.40797852 304.54881836 -44.13330078 304.83154297 C-79.83069804 318.52613167 -119.67730633 321.27991327 -157.09521484 314.28466797 C-158.54661865 314.01614014 -158.54661865 314.01614014 -160.02734375 313.7421875 C-160.87031006 313.5757373 -161.71327637 313.40928711 -162.58178711 313.23779297 C-168.39884538 312.66577735 -171.94705028 315.10388264 -176.5 318.375 C-192.58097622 329.45035844 -217.54477971 345.27845127 -238 344 C-238.89887451 341.02679971 -239.20882746 339.50134842 -237.99609375 336.58984375 C-237.48175781 335.71457031 -236.96742188 334.83929688 -236.4375 333.9375 C-233.49588328 328.40396924 -231.52749454 322.88053178 -229.75 316.875 C-229.50435303 316.05249756 -229.25870605 315.22999512 -229.00561523 314.38256836 C-227.34701037 308.64229861 -226.09492297 302.87157144 -225 297 C-224.83636963 296.19675293 -224.67273926 295.39350586 -224.50415039 294.56591797 C-224.03798214 291.94901209 -224.06742634 290.50601547 -225 288 C-228.15108613 284.9133313 -231.68283305 282.52874583 -235.34960938 280.11181641 C-260.31024594 263.29661834 -276.61559965 236.01481945 -283 207 C-285.44752727 193.24427714 -284.41576888 179.46916723 -281 166 C-280.75636719 164.88753906 -280.51273437 163.77507812 -280.26171875 162.62890625 C-272.76959244 131.91473916 -248.68304125 107.49198877 -222.58984375 91.203125 C-211.31826619 84.37377342 -199.85584508 79.03867994 -187.3125 74.9375 C-185.7361377 74.41990112 -185.7361377 74.41990112 -184.12792969 73.8918457 C-157.69625371 65.32767487 -131.70250676 62.74688065 -104 63 C-103.81566406 62.18660156 -103.63132813 61.37320313 -103.44140625 60.53515625 C-99.37657753 44.47456633 -91.89234316 31.48402236 -80 20 C-79.23300781 19.20207031 -78.46601563 18.40414062 -77.67578125 17.58203125 C-58.39406737 -1.43779177 -25.59822596 -9.05391799 0 0 Z " fill="#FDFDFD" transform="translate(346,64)"/>
<path d="M0 0 C15.2685113 12.66980708 25.07689714 29.04780788 27 49 C27.97362654 68.43196294 23.24180179 87.39263007 10.15234375 102.359375 C-2.5551437 116.11085389 -19.55148961 125.08713348 -38.4375 126.203125 C-59.82761192 126.48457384 -77.76037472 120.36147631 -93.25 105.375 C-105.91732903 92.55460996 -113.01377815 74.95286082 -113.25 57 C-113.08466294 36.10552899 -105.60651096 18.85581835 -90.77758789 4.23681641 C-65.73817151 -19.27690077 -27.44236119 -19.77257307 0 0 Z " fill="#574fe8" transform="translate(366,87)"/>
<path d="M0 0 C2.20214844 1.62988281 2.20214844 1.62988281 4 4 C4.45410156 7.11621094 4.45410156 7.11621094 4.390625 10.734375 C4.37773437 12.02988281 4.36484375 13.32539062 4.3515625 14.66015625 C4.31814366 16.02344824 4.28428391 17.38672949 4.25 18.75 C4.22992707 20.12888064 4.21167767 21.50778912 4.1953125 22.88671875 C4.14815448 26.25851744 4.08234538 29.62890687 4 33 C5.13429443 32.97643433 5.13429443 32.97643433 6.29150391 32.95239258 C9.73592576 32.88981953 13.18022774 32.85093795 16.625 32.8125 C17.81480469 32.78736328 19.00460937 32.76222656 20.23046875 32.73632812 C31.66226569 32.64053094 31.66226569 32.64053094 36 36 C36.9453125 37.8671875 36.9453125 37.8671875 37.125 39.875 C37.21007812 40.53242188 37.29515625 41.18984375 37.3828125 41.8671875 C36.79603574 45.1363723 35.32915815 46.67060462 33 49 C29.88378906 49.56762695 29.88378906 49.56762695 26.265625 49.48828125 C24.32236328 49.46411133 24.32236328 49.46411133 22.33984375 49.43945312 C20.97654572 49.39767939 19.61326448 49.3553547 18.25 49.3125 C16.87113376 49.2874091 15.49222403 49.26459729 14.11328125 49.24414062 C10.74108644 49.18518617 7.37109259 49.10293171 4 49 C4.01571045 50.18758911 4.01571045 50.18758911 4.03173828 51.39916992 C4.07337846 54.99524751 4.09935193 58.59127428 4.125 62.1875 C4.14175781 63.43337891 4.15851563 64.67925781 4.17578125 65.96289062 C4.18544922 67.7659668 4.18544922 67.7659668 4.1953125 69.60546875 C4.21102295 71.26292114 4.21102295 71.26292114 4.22705078 72.95385742 C3.99500622 76.06699715 3.39068895 78.21893265 2 81 C-0.64114525 83.15204428 -2.11132645 82.99609381 -5.5625 82.875 C-9 82 -9 82 -10.6965332 80.36621094 C-12.44325995 77.1953408 -12.34046072 74.87501489 -12.29296875 71.265625 C-12.2784668 69.32236328 -12.2784668 69.32236328 -12.26367188 67.33984375 C-12.23860783 65.97655646 -12.21321302 64.61327521 -12.1875 63.25 C-12.17244518 61.87110816 -12.15875817 60.49220065 -12.14648438 59.11328125 C-12.11111909 55.74179085 -12.06175904 52.37109346 -12 49 C-12.8878418 49.02618408 -13.77568359 49.05236816 -14.69042969 49.0793457 C-17.99300405 49.1646975 -21.29440275 49.22730652 -24.59765625 49.2746582 C-26.02557901 49.29976347 -27.45337375 49.33385587 -28.88085938 49.37719727 C-30.93651918 49.43803678 -32.99047753 49.46624551 -35.046875 49.48828125 C-36.90070801 49.52755737 -36.90070801 49.52755737 -38.79199219 49.56762695 C-42 49 -42 49 -44.39941406 46.65698242 C-46.37852234 43.37165061 -46.70712703 41.77134416 -46 38 C-43.43043475 34.78235202 -41.97116586 33.17567577 -37.86206055 32.43237305 C-36.71519775 32.45855713 -35.56833496 32.48474121 -34.38671875 32.51171875 C-33.13955078 32.52783203 -31.89238281 32.54394531 -30.60742188 32.56054688 C-29.31384766 32.60244141 -28.02027344 32.64433594 -26.6875 32.6875 C-25.37458984 32.71005859 -24.06167969 32.73261719 -22.70898438 32.75585938 C-19.4714987 32.81472275 -16.23633 32.89691196 -13 33 C-13.02094727 32.21351074 -13.04189453 31.42702148 -13.06347656 30.61669922 C-13.14687753 27.03626402 -13.19873776 23.45603358 -13.25 19.875 C-13.28351563 18.6375 -13.31703125 17.4 -13.3515625 16.125 C-13.47487237 4.65718199 -13.47487237 4.65718199 -9 0 C-5.81452856 -1.59273572 -3.39809153 -0.76164121 0 0 Z " fill="#FAFAFD" transform="translate(327,101)"/>
<path d="M0 0 C0.99261337 0.00222061 1.98522675 0.00444122 3.00791931 0.00672913 C4.12900589 0.00680466 5.25009247 0.00688019 6.40515137 0.00695801 C8.2348069 0.01469994 8.2348069 0.01469994 10.10142517 0.02259827 C11.96377052 0.02472069 11.96377052 0.02472069 13.86373901 0.02688599 C17.16982383 0.03154861 20.47584039 0.04053955 23.78190613 0.05158997 C27.15338042 0.06180625 30.52486175 0.06638407 33.89634705 0.07142639 C40.51550667 0.08248056 47.13463385 0.09923715 53.75376892 0.12025452 C53.78258729 1.876668 53.8031239 3.63321864 53.82017517 5.38978577 C53.83250183 6.3679425 53.84482849 7.34609924 53.85752869 8.35389709 C53.61203359 14.89908512 50.11806085 19.58044036 45.85923767 24.25697327 C39.26738953 30.09057542 31.37082238 32.51517548 22.73033142 32.38978577 C14.86646659 31.67770352 8.82992831 28.29760294 3.51548767 22.53041077 C-1.03896709 16.2995935 -4.28469281 8.90871748 -3.24623108 1.12025452 C-2.24623108 0.12025452 -2.24623108 0.12025452 0 0 Z " fill="#574fe8" transform="translate(176.24623107910156,261.87974548339844)"/>
<path d="M0 0 C4.53284123 1.6810537 7.8413736 4.27361111 10.5 8.3125 C12.16507003 12.40579715 12.9449341 15.68617043 12 20 C9.65072032 25.48831722 6.44457355 29.38241656 1 32 C-3.74951526 33.35069858 -7.68205074 33.49955515 -12.25 31.5 C-16.33289668 29.08292517 -19.24094072 26.46960971 -21 22 C-21.99732838 16.82101618 -22.28344839 12.16177647 -19.52734375 7.51953125 C-13.68365812 0.7081015 -8.92339335 -1.17028109 0 0 Z " fill="#574fe8" transform="translate(257,222)"/>
<path d="M0 0 C3.72589565 2.75184981 7.20377984 5.35192302 7.9453125 10.18359375 C8.1404159 18.32055314 6.21257095 22.88471598 0.69921875 28.765625 C-3.6303132 30.8030518 -7.45776834 30.04220012 -11.92578125 28.765625 C-16.45180076 26.63573347 -19.56384275 22.77557272 -22.42578125 18.765625 C-23.79214421 14.66653612 -24.18336654 11.04208778 -23.42578125 6.765625 C-21.51520337 3.40499941 -19.2830167 0.41952665 -15.55078125 -0.89453125 C-10.25587742 -1.74132653 -4.91448059 -2.50076629 0 0 Z " fill="#574fe8" transform="translate(156.42578125,224.234375)"/>
</svg>
