<svg xmlns="http://www.w3.org/2000/svg" fill-rule="evenodd" stroke-linejoin="round" stroke-miterlimit="2" clip-rule="evenodd" viewBox="0 0 32 32" id="Speaker">
  <path fill="#574fe8" d="M11.577,21.888c-0.477,0.276 -0.64,0.886 -0.365,1.364l3.598,6.247c0.132,0.23 0.351,0.398 0.607,0.467c0.257,0.069 0.53,0.033 0.76,-0.101l1.856,-1.072c0.477,-0.276 0.641,-0.887 0.366,-1.365l-1.232,-2.139c-0,0 -0.103,-1.769 -0.103,-1.769c-0.009,-0.156 -0.054,-0.308 -0.132,-0.443l-1.358,-2.35c-0.132,-0.23 -0.351,-0.397 -0.608,-0.466c-0.256,-0.068 -0.53,-0.032 -0.759,0.101l-2.63,1.526Z" class="color8a8282 svgShape"></path>
  <path fill="#463cff" d="M5.325,16.242c-0.132,-0.231 -0.351,-0.398 -0.607,-0.467c-0.257,-0.069 -0.53,-0.033 -0.76,0.1c-0,0 -0.78,0.451 -1.559,0.902c-0.643,0.372 -1.112,0.985 -1.304,1.703c-0.192,0.718 -0.091,1.483 0.28,2.127c0.549,0.954 1.25,2.17 1.799,3.124c0.371,0.645 0.983,1.115 1.7,1.308c0.718,0.193 1.483,0.092 2.126,-0.281c0.78,-0.451 1.559,-0.902 1.559,-0.902c0.478,-0.276 0.641,-0.887 0.366,-1.364l-3.6,-6.25Z" class="colorffc93c svgShape"></path>
  <path fill="#2a22bd" d="M14.421,6.809c-0.145,-0.252 -0.392,-0.428 -0.677,-0.483c-0.286,-0.055 -0.58,0.016 -0.809,0.196c0,-0 -7.213,5.678 -9.389,7.39c-0.742,0.584 -0.944,1.626 -0.472,2.446c0.997,1.73 3.628,6.299 4.625,8.03c0.473,0.821 1.476,1.168 2.354,0.814l11.079,-4.456c0.269,-0.108 0.478,-0.327 0.572,-0.601c0.095,-0.274 0.066,-0.575 -0.078,-0.826l-7.205,-12.51Z" class="colorbd2222 svgShape"></path>
  <path fill="#463cff" d="M18.072,9.903c0.277,0.478 2.424,4.21 2.7,4.688c0.277,0.478 0.889,0.641 1.367,0.365c1.767,-1.023 2.374,-3.291 1.354,-5.062c-1.022,-1.773 -3.287,-2.381 -5.056,-1.357c-0.478,0.276 -0.641,0.889 -0.365,1.366Z" class="colorffc93c svgShape"></path>
  <path fill="#4e45f2" d="M17.105,4.215c-0.36,-0.625 -1.042,-0.991 -1.76,-0.948c-0.719,0.043 -1.351,0.489 -1.634,1.152c-0.492,1.155 -0.957,2.245 -0.957,2.245l8.175,14.164c-0,-0 1.158,0.139 2.402,0.29c0.715,0.086 1.417,-0.239 1.814,-0.842c0.395,-0.6 0.418,-1.374 0.059,-1.997l-8.099,-14.064Z" class="colorf24545 svgShape"></path>
  <path fill="#574fe8" d="M26.04,13.617l4.02,-0.243c0.551,-0.033 0.972,-0.508 0.938,-1.059c-0.033,-0.551 -0.507,-0.971 -1.058,-0.937l-4.021,0.243c-0.551,0.033 -0.971,0.508 -0.937,1.058c0.033,0.551 0.507,0.972 1.058,0.938Zm-0.578,-3.706l3.12,-1.806c0.478,-0.276 0.641,-0.888 0.365,-1.366c-0.277,-0.478 -0.889,-0.641 -1.367,-0.365l-3.12,1.806c-0.478,0.277 -0.641,0.889 -0.364,1.367c0.276,0.477 0.888,0.641 1.366,0.364Zm-2.247,-2.992l2.22,-3.369c0.304,-0.46 0.176,-1.081 -0.285,-1.385c-0.46,-0.304 -1.081,-0.176 -1.385,0.285l-2.22,3.368c-0.304,0.461 -0.176,1.082 0.284,1.385c0.461,0.304 1.082,0.177 1.386,-0.284Z" class="color8a8282 svgShape"></path>
</svg>
