<?xml version="1.0" encoding="UTF-8"?>
<svg version="1.1" xmlns="http://www.w3.org/2000/svg" width="577" height="577">
<path d="M0 0 C0.88405518 -0.00067474 1.76811035 -0.00134949 2.67895508 -0.00204468 C80.96284647 0.09242857 152.12804158 32.13118625 208 86.25 C209.82844515 88.19515441 211.57135981 90.17330257 213.28125 92.22265625 C215.33543452 94.64566027 217.51299612 96.93442862 219.6875 99.25 C234.57972221 115.63144443 246.73026606 134.68801775 257 154.25 C257.45487793 155.10964355 257.90975586 155.96928711 258.37841797 156.85498047 C293.2525788 223.60876175 298.95852443 303.48061959 277 375.25 C264.42902814 414.01690101 244.69858395 449.97327009 217.0390625 480.02734375 C215.18749705 482.04562103 213.40167 484.10349135 211.625 486.1875 C204.70391756 494.12024878 197.098655 501.52866728 189 508.25 C188.01515625 509.0853125 187.0303125 509.920625 186.015625 510.78125 C125.14879688 561.53422828 47.86705728 582.30532142 -30.33203125 575.609375 C-91.95326579 569.57193775 -150.66486111 541.95702586 -195.55419922 499.59423828 C-197.61606408 497.67721229 -199.7454992 495.8412435 -201.875 494 C-205.28298699 490.98857877 -208.28941248 487.81119701 -211.21875 484.3359375 C-212.41389334 482.93636174 -213.64423956 481.56615555 -214.90625 480.2265625 C-247.29774352 445.78038469 -268.94488311 400.87104465 -280 355.25 C-280.20705566 354.39567383 -280.41411133 353.54134766 -280.62744141 352.66113281 C-281.98350925 346.89184669 -283.0728113 341.10287869 -284 335.25 C-284.22429687 333.84282715 -284.22429687 333.84282715 -284.453125 332.40722656 C-288.91827729 302.91220119 -288.90267502 271.67087559 -284 242.25 C-283.83371094 241.23019043 -283.66742188 240.21038086 -283.49609375 239.15966797 C-279.54358047 215.68247101 -272.47466307 193.0705795 -263 171.25 C-262.69658691 170.54149902 -262.39317383 169.83299805 -262.08056641 169.10302734 C-252.10406683 146.04347652 -238.12197387 124.48164298 -222 105.25 C-221.16726562 104.23292969 -220.33453125 103.21585937 -219.4765625 102.16796875 C-208.00010864 88.32047993 -195.32365708 75.16326254 -181 64.25 C-179.7397896 63.25138131 -178.48076919 62.25125989 -177.22265625 61.25 C-126.69906869 21.38866447 -64.26660607 0.04419265 0 0 Z " fill="#574fe8" transform="translate(287,-0.25)"/>
<path d="M0 0 C1.4251286 0.00503579 2.85025896 0.00959494 4.27539062 0.01367188 C7.70446493 0.02448818 11.13347032 0.04163239 14.5625 0.0625 C14.5625 0.7225 14.5625 1.3825 14.5625 2.0625 C13.9025 2.0625 13.2425 2.0625 12.5625 2.0625 C7.55352739 13.33268836 11.16806337 26.17865541 15.35839844 37.14550781 C17.26318602 41.86492997 19.37103423 46.46990659 21.5625 51.0625 C21.97371094 51.9390625 22.38492188 52.815625 22.80859375 53.71875 C26.11572651 60.21858186 31.45779752 68.69426584 38.5625 71.0625 C47.31871675 71.89838298 54.44482674 70.28654045 62.5625 67.0625 C62.89121094 67.56136719 63.21992188 68.06023437 63.55859375 68.57421875 C65.21664637 71.07702446 66.89005578 73.56928747 68.5625 76.0625 C69.26246094 77.12210937 69.96242188 78.18171875 70.68359375 79.2734375 C76.87543806 88.54423444 83.58898422 98.23329255 94.5625 102.0625 C102.15673129 103.20548127 109.81319797 102.08667263 116.34765625 97.92578125 C120.38425741 94.7817946 123.166484 91.39569429 124.03125 86.30078125 C124.10372056 79.51572534 123.08369323 74.90721504 119.65625 69.0234375 C118.5625 67.0625 118.5625 67.0625 118.5625 65.0625 C126.82173393 64.62780348 134.5608873 66.03497978 142.5625 68.0625 C143.23104004 68.18334961 143.89958008 68.30419922 144.58837891 68.42871094 C148.17719828 69.32698515 150.03870278 70.34699406 152.25415039 73.37329102 C153.93630112 76.42266213 155.39808303 79.50512007 156.8125 82.6875 C157.33046143 83.81019287 157.84842285 84.93288574 158.38208008 86.08959961 C170.24527541 112.59651553 170.54552201 140.80841648 160.2890625 167.85546875 C146.31617408 202.88438798 115.30860836 228.21276153 81.38671875 243.01171875 C70.64287015 247.46048094 59.66029352 250.92952693 48.375 253.6875 C47.59987061 253.88142334 46.82474121 254.07534668 46.02612305 254.27514648 C29.82921971 258.09503349 13.7938757 259.58443317 -2.8125 259.4375 C-4.14498779 259.43301346 -4.14498779 259.43301346 -5.50439453 259.42843628 C-17.53302281 259.38103588 -29.31393569 258.90934766 -41.1875 256.81640625 C-41.89084473 256.69305908 -42.59418945 256.56971191 -43.31884766 256.44262695 C-44.80080594 256.17673515 -46.27953344 255.89247913 -47.75537109 255.59448242 C-51.95907981 254.88857994 -53.86765253 254.77890458 -57.7890625 256.73046875 C-58.89469313 257.55114997 -59.98521129 258.39245362 -61.0625 259.25 C-77.64368475 271.32247575 -103.22437764 287.09877322 -124.4375 286.0625 C-125.4375 285.0625 -125.4375 285.0625 -125.66796875 282.39453125 C-125.40505364 278.59340267 -124.3824102 276.18340684 -122.75 272.75 C-116.79927618 259.63364977 -111.4375 243.56250664 -111.4375 229.0625 C-113.49496507 227.11491095 -113.49496507 227.11491095 -116.25 225.375 C-133.69611169 213.28829794 -146.58116836 199.31757882 -157.4375 181.0625 C-158.10910156 179.95519531 -158.78070313 178.84789062 -159.47265625 177.70703125 C-173.24810339 154.09335647 -174.43538335 125.98194796 -167.62890625 99.97265625 C-160.1860516 75.32853752 -143.16386397 53.07662812 -122.4375 38.0625 C-121.4165625 37.28777344 -120.395625 36.51304687 -119.34375 35.71484375 C-106.47539532 26.08001782 -92.65213836 18.31735502 -77.4375 13.0625 C-76.58800781 12.72992188 -75.73851562 12.39734375 -74.86328125 12.0546875 C-50.72136337 2.66410995 -25.70244277 -0.16134425 0 0 Z " fill="#FDFCFD" transform="translate(271.4375,183.9375)"/>
<path d="M0 0 C19.58271239 17.70247255 31.42000616 43.7905103 33.24487305 70.01074219 C34.40757188 94.15058456 34.40757188 94.15058456 28.03540039 105.00097656 C27.67446289 105.63648438 27.31352539 106.27199219 26.94165039 106.92675781 C23.62088144 111.70629313 18.39084263 114.19456685 13.03540039 116.00097656 C3.05056643 117.204381 -6.80214208 115.00100735 -16.56079102 113.12258911 C-33.02198001 109.96787684 -49.19826308 107.69490103 -65.96459961 107.00097656 C-60.1597727 123.64462654 -60.1597727 123.64462654 -48.96459961 136.00097656 C-48.88363157 137.45840119 -48.82542187 138.91710463 -48.77709961 140.37597656 C-48.72489258 141.59414063 -48.72489258 141.59414063 -48.67163086 142.83691406 C-48.76831055 143.55105469 -48.86499023 144.26519531 -48.96459961 145.00097656 C-52.25635354 147.19547918 -53.48835391 147.32321977 -57.33959961 147.37597656 C-58.27545898 147.40433594 -59.21131836 147.43269531 -60.17553711 147.46191406 C-66.12512512 146.47864882 -69.44201682 141.51058361 -72.90209961 136.93847656 C-73.3366748 136.36846924 -73.77125 135.79846191 -74.21899414 135.21118164 C-78.54176909 129.42200946 -82.16688806 123.28190835 -84.96850586 116.61035156 C-85.84470994 114.57198558 -86.63272811 112.77680523 -87.96459961 111.00097656 C-89.03709961 110.73285156 -90.10959961 110.46472656 -91.21459961 110.18847656 C-97.34796769 108.24624334 -99.7985498 103.38261905 -102.96459961 98.00097656 C-106.64470427 90.67326265 -109.96768379 83.18345446 -110.96459961 75.00097656 C-111.19791992 73.83566406 -111.43124023 72.67035156 -111.67163086 71.46972656 C-112.20539631 67.13017008 -112.26506866 64.19037685 -110.96459961 60.00097656 C-107.03996565 55.91885994 -101.44128779 53.77115219 -96.43286133 51.30810547 C-92.24810075 49.09196223 -88.46593905 46.35831087 -84.65209961 43.56347656 C-83.89606445 43.01103271 -83.1400293 42.45858887 -82.36108398 41.8894043 C-75.79033677 37.00653571 -69.80551599 31.73643196 -63.96459961 26.00097656 C-63.44639648 25.49646973 -62.92819336 24.99196289 -62.39428711 24.47216797 C-58.86492718 21.03125517 -55.39624184 17.539381 -51.96459961 14.00097656 C-51.31104492 13.33066406 -50.65749023 12.66035156 -49.98413086 11.96972656 C-46.78376765 8.49278876 -45.21472487 5.39060894 -43.73413086 0.92285156 C-41.72144955 -4.10374339 -37.8412077 -7.73913188 -32.96459961 -9.99902344 C-20.61986437 -13.44406583 -9.27157069 -7.93967521 0 0 Z " fill="#FBFAFD" transform="translate(429.964599609375,124.9990234375)"/>
<path d="M0 0 C15.07682921 5.8580727 24.63876525 23.09965522 30.8515625 37.0390625 C37.2442742 52.12495103 43.28641325 71.71539801 37.25 87.8125 C35.76890903 91.22723752 34.20655948 93.07488326 31 95 C26.16610442 96.19229929 21.88494814 95.36060708 17.625 92.875 C-1.04978408 78.99112911 -11.02483981 53.44649794 -14.67480469 31.37353516 C-16.09314379 21.02136343 -16.22497304 10.4156998 -10.3125 1.4375 C-6.87416508 -0.69984333 -3.85853915 -0.77878772 0 0 Z " fill="#574fe8" transform="translate(411,130)"/>
<path d="M0 0 C1.01037827 0.00222061 2.02075653 0.00444122 3.06175232 0.00672913 C4.77341331 0.00684242 4.77341331 0.00684242 6.51965332 0.00695801 C7.76129745 0.01211929 9.00294159 0.01728058 10.2822113 0.02259827 C12.17785072 0.02472069 12.17785072 0.02472069 14.11178589 0.02688599 C17.47705394 0.0315487 20.84225495 0.04053972 24.20750427 0.05158997 C27.63930175 0.06180606 31.07110614 0.06638403 34.50291443 0.07142639 C41.2405633 0.08248071 47.9781803 0.09923742 54.71580505 0.12025452 C54.7387419 1.89070183 54.75515558 3.66123452 54.76878357 5.43177795 C54.77861771 6.41772949 54.78845184 7.40368103 54.79858398 8.41950989 C54.59498612 15.06209203 50.68509179 20.39287537 46.21580505 25.05775452 C39.84531076 30.89394929 32.64741372 33.7204998 23.9150238 33.42884827 C15.47167342 32.24407974 8.26262761 28.61121708 2.71580505 22.12025452 C1.10208707 19.54312281 -0.11747912 16.92152767 -1.28419495 14.12025452 C-1.8236676 13.15732483 -1.8236676 13.15732483 -2.3740387 12.17494202 C-3.43727307 9.77467901 -3.51921126 8.04615167 -3.47169495 5.43275452 C-3.46524963 4.64513733 -3.45880432 3.85752014 -3.4521637 3.04603577 C-3.20519735 0.2145379 -2.84773191 0.14992268 0 0 Z " fill="#574fe8" transform="translate(216.28419494628906,320.87974548339844)"/>
<path d="M0 0 C4.10557018 2.5943994 7.81663763 5.11446536 9.4609375 9.828125 C10.19073281 15.51841307 9.76303734 19.98504524 6.4609375 24.828125 C1.90718677 29.18388657 -1.65898565 31.50811646 -7.9140625 32.203125 C-13.60394268 31.61451671 -17.05795649 29.42616043 -20.9140625 25.265625 C-24.29728645 20.19078907 -24.26524109 14.73657807 -23.5390625 8.828125 C-21.84393238 4.76565799 -19.38358895 2.43696965 -15.8515625 -0.109375 C-10.35258461 -1.8731981 -5.36791537 -2.4774994 0 0 Z " fill="#574fe8" transform="translate(300.5390625,282.171875)"/>
<path d="M0 0 C0.02578125 0.77601563 0.0515625 1.55203125 0.078125 2.3515625 C0.87950452 17.61419974 5.43150235 32.76275374 15.25 44.74609375 C17 47 17 47 17 50 C7.04366812 54.19213974 7.04366812 54.19213974 2 53 C-3.40072813 47.39021143 -6.77144885 40.00715176 -10 33 C-10.53625 31.906875 -11.0725 30.81375 -11.625 29.6875 C-14.72327818 21.37848124 -16.72816708 12.88363839 -16 4 C-13.50878533 1.50878533 -12.0000091 1.45020073 -8.5625 0.875 C-7.59441406 0.70742187 -6.62632812 0.53984375 -5.62890625 0.3671875 C-3 0 -3 0 0 0 Z " fill="#FAF9FC" transform="translate(311,189)"/>
<path d="M0 0 C4.76394431 2.16542923 8.13855209 4.71665202 10.8125 9.3125 C11.87170994 14.98187778 11.53352803 19.81157704 8.5625 24.8125 C4.72103659 30.01981707 4.72103659 30.01981707 1.8125 31.3125 C-2.43114508 31.87192591 -5.98271209 31.83274932 -9.9375 30.125 C-15.20283592 25.88347939 -19.51041676 21.8735113 -20.54296875 14.91796875 C-20.78553346 10.54524824 -20.72787021 7.32629952 -17.9375 3.8125 C-12.55057346 -1.08470595 -7.01390177 -2.20436913 0 0 Z " fill="#574fe8" transform="translate(193.1875,281.6875)"/>
<path d="M0 0 C3.68351539 2.58629804 4.81727257 4.06975126 5.6875 8.5 C4.93831478 12.31403386 3.97318054 13.44588296 0.97241211 15.79589844 C-2.90478859 18.16281932 -7.20553307 19.2079013 -11.5625 20.375 C-12.49513672 20.64699219 -13.42777344 20.91898438 -14.38867188 21.19921875 C-19.03460583 22.4906758 -22.24962986 23.31997527 -27 22 C-28 21 -28 21 -28.33203125 18.18359375 C-28 15 -28 15 -26.19921875 12.91015625 C-23.48281555 10.91193119 -20.76975877 8.92405909 -18 7 C-17.05382812 6.31808594 -16.10765625 5.63617188 -15.1328125 4.93359375 C-5.87880454 -1.41091309 -5.87880454 -1.41091309 0 0 Z " fill="#F6F4FA" transform="translate(503,139)"/>
<path d="M0 0 C1.24523437 -0.02449219 2.49046875 -0.04898438 3.7734375 -0.07421875 C5.5678125 -0.08001953 5.5678125 -0.08001953 7.3984375 -0.0859375 C8.49591309 -0.09415527 9.59338867 -0.10237305 10.72412109 -0.11083984 C14.29091536 0.48652765 15.46021365 1.52754779 17.625 4.375 C18.15791261 7.95312751 17.87182544 9.85784195 16.3125 13.125 C14.36594349 15.72040867 12.78242319 17.20479071 9.5 17.6875 C6.1374326 17.32200354 3.28179843 16.3637321 0.10546875 15.23046875 C-3.28797377 14.06013188 -6.74346864 13.14340836 -10.2109375 12.21875 C-12.61394259 11.28183827 -13.80614762 10.41201785 -15.375 8.375 C-15.6875 5.3125 -15.6875 5.3125 -15.375 2.375 C-11.60024112 -1.39975888 -5.09299107 0.0052397 0 0 Z " fill="#F6F5FB" transform="translate(494.375,179.625)"/>
<path d="M0 0 C4.47395674 0.78490469 5.93038535 1.95599171 8.5625 5.625 C9.09487053 8.63890413 9.15365951 10.67031373 7.51000977 13.32470703 C6.03177132 15.16391368 4.48301662 16.89822014 2.875 18.625 C1.80830112 19.81223715 0.7418921 20.99973479 -0.32421875 22.1875 C-1.10925781 23.04335693 -1.10925781 23.04335693 -1.91015625 23.91650391 C-3.39296016 25.57517746 -4.7817014 27.2838989 -6.16796875 29.0234375 C-8.4375 31.625 -8.4375 31.625 -11.0625 32.25 C-13.4375 31.625 -13.4375 31.625 -15.3125 30 C-16.86195636 26.72892547 -16.28493322 25.14164317 -15.4375 21.625 C-14.31555382 18.85772188 -12.9904581 16.2165937 -11.625 13.5625 C-11.28146484 12.86833984 -10.93792969 12.17417969 -10.58398438 11.45898438 C-5.26863798 0.95793418 -5.26863798 0.95793418 0 0 Z " fill="#F7F5FB" transform="translate(472.4375,105.375)"/>
<path d="M0 0 C4.70957837 1.41287351 7.16055826 3.5407223 9.9375 7.5625 C11.90808829 13.16311934 12.05512386 18.48980562 9.9375 24.0625 C8.125 25.9375 8.125 25.9375 5.75 26.625 C1.19141559 25.43108504 -0.66117937 21.81734558 -3.078125 18.07421875 C-5.80977836 13.27458837 -7.07950492 8.43915761 -5.875 2.9375 C-3.85806214 0.2950191 -3.42812552 -0.07452447 0 0 Z " fill="#F8F6FB" transform="translate(417.875,166.0625)"/>
<path d="M0 0 C0.66 0.33 1.32 0.66 2 1 C-0.97 3.97 -3.94 6.94 -7 10 C-7 6.04435836 -5.59478606 4.89133304 -3 2 C-2.01 1.34 -1.02 0.68 0 0 Z " fill="#DDD6F1" transform="translate(395,116)"/>
</svg>
