<svg xmlns="http://www.w3.org/2000/svg" width="96" height="96" fill="none" viewBox="0 0 96 96" id="ImageAdd">
  <path fill="url(#paint0_linear_1100_1641)" fill-rule="evenodd" d="M77 27.5C75.6193 27.5 74.5 26.3807 74.5 25V18.5H68C66.6193 18.5 65.5 17.3807 65.5 16C65.5 14.6193 66.6193 13.5 68 13.5H74.5V7C74.5 5.61929 75.6193 4.5 77 4.5C78.3807 4.5 79.5 5.61929 79.5 7V13.5H86C87.3807 13.5 88.5 14.6193 88.5 16C88.5 17.3807 87.3807 18.5 86 18.5H79.5V25C79.5 26.3807 78.3807 27.5 77 27.5ZM31.5 31C31.5 29.067 33.067 27.5 35 27.5C36.933 27.5 38.5 29.067 38.5 31C38.5 32.933 36.933 34.5 35 34.5C33.067 34.5 31.5 32.933 31.5 31ZM35 22.5C30.3056 22.5 26.5 26.3056 26.5 31C26.5 35.6944 30.3056 39.5 35 39.5C39.6944 39.5 43.5 35.6944 43.5 31C43.5 26.3056 39.6944 22.5 35 22.5ZM11.5 24C11.5 17.0964 17.0964 11.5 24 11.5H52.5C53.8807 11.5 55 10.3807 55 9C55 7.61929 53.8807 6.5 52.5 6.5H24C14.335 6.5 6.5 14.335 6.5 24V71C6.5 80.665 14.335 88.5 24 88.5H71C80.665 88.5 88.5 80.665 88.5 71V52.5V49.3137C88.5 46.5289 87.3938 43.8582 85.4246 41.8891L80.9498 37.4142C78.2161 34.6805 73.7839 34.6805 71.0502 37.4142L49.9142 58.5503C49.1332 59.3313 47.8668 59.3313 47.0858 58.5502L41.4497 52.9142C38.7161 50.1805 34.2839 50.1805 31.5503 52.9142L11.6332 72.8313C11.5454 72.2336 11.5 71.6221 11.5 71V24ZM24 83.5C19.6625 83.5 15.841 81.2908 13.5994 77.9361L35.0858 56.4497C35.8668 55.6687 37.1332 55.6687 37.9142 56.4497L43.5503 62.0858C46.2839 64.8195 50.7161 64.8195 53.4497 62.0858L74.5858 40.9497C75.3668 40.1687 76.6332 40.1687 77.4142 40.9497L81.8891 45.4246C82.9205 46.4561 83.5 47.855 83.5 49.3137V52.5V71C83.5 77.9036 77.9036 83.5 71 83.5H24Z" clip-rule="evenodd"></path>
  <defs>
    <linearGradient id="paint0_linear_1100_1641" x1="47.5" x2="47.5" y1="4.5" y2="88.5" gradientUnits="userSpaceOnUse">
      <stop stop-color="#343434" class="stopColorff1f00 svgShape"></stop>
      <stop offset="1" stop-color="#808080" class="stopColorff8a00 svgShape"></stop>
    </linearGradient>
  </defs>
</svg>
